<svg width="28" height="28" viewBox="0 0 28 28" fill="none" xmlns="http://www.w3.org/2000/svg">
<rect width="28" height="28" rx="5.6" fill="#E3A368"/>
<path d="M21.7539 12.3169H21.0778C20.9155 10.4809 20.0996 8.77413 18.7902 7.5315C17.4808 6.28888 15.7724 5.60001 14 5.60001C12.2276 5.60001 10.5192 6.28888 9.20983 7.5315C7.90044 8.77413 7.08455 10.4809 6.9222 12.3169H6.24616C6.07479 12.3169 5.91044 12.3877 5.78926 12.5138C5.66808 12.6399 5.60001 12.8108 5.60001 12.9891C5.60285 14.5877 6.02573 16.1551 6.82294 17.5218C7.62015 18.8884 8.76133 20.0023 10.1231 20.743V21.0556C10.1231 21.4122 10.2592 21.7541 10.5016 22.0062C10.7439 22.2584 11.0726 22.4 11.4154 22.4H16.5846C16.9274 22.4 17.2561 22.2584 17.4984 22.0062C17.7408 21.7541 17.8769 21.4122 17.8769 21.0556V20.743C19.2387 20.0023 20.3799 18.8884 21.1771 17.5218C21.9743 16.1551 22.3972 14.5877 22.4 12.9891C22.4 12.8108 22.3319 12.6399 22.2108 12.5138C22.0896 12.3877 21.9252 12.3169 21.7539 12.3169ZM19.7782 12.3169H15.6251C16.4085 11.0942 17.5937 10.2108 18.9584 9.83228C19.4047 10.5874 19.6846 11.4359 19.7782 12.3169ZM17.6734 8.30301C17.8215 8.42905 17.9634 8.56209 18.099 8.70213C16.379 9.33161 14.9575 10.6253 14.1292 12.3152H11.7465C12.1504 11.1376 12.8939 10.1183 13.8755 9.39673C14.8571 8.67515 16.0289 8.28643 17.2308 8.28369C17.3786 8.28369 17.5264 8.29125 17.6734 8.30301ZM14 6.93927C14.5185 6.93963 15.0346 7.01226 15.5346 7.15522C14.317 7.46945 13.2005 8.11205 12.2976 9.01826C11.3948 9.92446 10.7375 11.0622 10.392 12.3169H8.22178C8.38206 10.8388 9.05961 9.47372 10.1253 8.48194C11.1909 7.49016 12.5702 6.94104 14 6.93927ZM16.961 19.7112C16.8483 19.7651 16.7529 19.8515 16.6861 19.9603C16.6194 20.0691 16.5841 20.1955 16.5846 20.3246V21.0556H11.4154V20.3246C11.4159 20.1955 11.3806 20.0691 11.3139 19.9603C11.2471 19.8515 11.1517 19.7651 11.039 19.7112C9.90268 19.1672 8.92388 18.3218 8.20086 17.2599C7.47784 16.1981 7.03603 14.957 6.91978 13.6613H21.0778C20.9618 14.9567 20.5203 16.1976 19.7978 17.2595C19.0752 18.3213 18.0969 19.1669 16.961 19.7112Z" fill="white"/>
</svg>
